<?xml version="1.0" standalone="no"?>
<!DOCTYPE svg PUBLIC "-//W3C//DTD SVG 20010904//EN"
 "http://www.w3.org/TR/2001/REC-SVG-20010904/DTD/svg10.dtd">
<svg version="1.0" xmlns="http://www.w3.org/2000/svg"
 width="1024.000000pt" height="1024.000000pt" viewBox="0 0 1024.000000 1024.000000"
 preserveAspectRatio="xMidYMid meet">

<g transform="translate(0.000000,1024.000000) scale(0.100000,-0.100000)"
fill="#000000" stroke="none">
<path d="M5644 7755 c-35 -15 -44 -31 -44 -84 0 -39 20 -76 54 -101 58 -40
139 -129 162 -176 42 -87 43 -162 5 -275 -77 -223 -51 -432 65 -539 49 -45 78
-55 136 -47 53 7 88 40 88 84 0 43 -14 70 -57 108 -25 23 -37 45 -49 94 -20
81 -15 124 32 260 45 130 55 233 29 310 -39 119 -187 297 -286 344 -72 34 -98
38 -135 22z"/>
<path d="M6249 7474 c-19 -20 -24 -36 -23 -74 0 -42 7 -57 54 -119 72 -99 99
-168 100 -256 0 -109 -23 -171 -113 -304 -27 -41 -63 -104 -80 -140 -28 -60
-31 -76 -31 -166 0 -115 18 -189 69 -280 86 -154 173 -199 240 -125 27 30 24
98 -8 159 -90 169 -90 170 -90 231 1 70 27 133 102 243 78 116 111 189 127
280 25 143 -9 290 -98 424 -93 139 -191 189 -249 127z"/>
<path d="M4545 7422 c-233 -69 -411 -244 -448 -441 -11 -59 -13 -61 -42 -61
-49 0 -146 -29 -195 -57 -101 -59 -182 -158 -221 -269 -17 -49 -20 -77 -17
-164 3 -95 7 -112 38 -175 64 -134 217 -252 350 -270 l50 -7 0 -315 0 -315 23
5 c12 3 61 22 110 42 245 102 506 128 757 76 98 -20 247 -69 312 -102 21 -11
42 -19 47 -19 7 0 12 109 13 317 l3 316 52 12 c240 54 399 285 358 520 -19
107 -57 179 -139 261 -81 81 -170 130 -257 140 l-54 6 -1 67 c-2 169 -152 346
-354 418 -99 36 -290 43 -385 15z"/>
<path d="M2949 5541 l-24 -19 0 -1176 c0 -1069 1 -1177 16 -1191 9 -9 117 -42
245 -75 581 -149 982 -334 1337 -620 49 -39 93 -68 98 -65 5 4 9 478 9 1220
l0 1214 -67 54 c-331 264 -813 484 -1398 638 -172 45 -184 46 -216 20z"/>
<path d="M6395 5544 c-22 -7 -107 -31 -190 -53 -294 -79 -538 -168 -792 -291
-241 -117 -451 -244 -555 -339 l-38 -33 0 -1214 c0 -810 3 -1215 10 -1219 6
-4 45 21 87 55 345 278 803 489 1376 635 121 31 216 60 228 70 19 18 19 41 19
1192 0 1160 0 1173 -20 1193 -23 23 -64 24 -125 4z"/>
</g>
</svg>
